<svg width="167" height="74" viewBox="0 0 167 74" fill="none" xmlns="http://www.w3.org/2000/svg">
<rect width="167" height="74" rx="10" fill="#D9D9D9"/>
<path d="M31.275 54.45C29.085 54.45 27.12 53.91 25.38 52.83C23.67 51.75 22.305 50.28 21.285 48.42C20.295 46.56 19.8 44.475 19.8 42.165C19.8 39.855 20.295 37.77 21.285 35.91C22.305 34.05 23.67 32.58 25.38 31.5C27.12 30.42 29.085 29.88 31.275 29.88C33.375 29.88 35.28 30.315 36.99 31.185C38.73 32.025 40.05 33.18 40.95 34.65L38.385 37.8C37.905 37.11 37.29 36.48 36.54 35.91C35.79 35.34 34.995 34.89 34.155 34.56C33.315 34.23 32.505 34.065 31.725 34.065C30.285 34.065 28.995 34.425 27.855 35.145C26.745 35.835 25.86 36.795 25.2 38.025C24.54 39.255 24.21 40.635 24.21 42.165C24.21 43.695 24.555 45.075 25.245 46.305C25.935 47.505 26.85 48.465 27.99 49.185C29.13 49.905 30.39 50.265 31.77 50.265C32.58 50.265 33.36 50.13 34.11 49.86C34.89 49.59 35.64 49.185 36.36 48.645C37.08 48.105 37.755 47.445 38.385 46.665L40.95 49.815C39.99 51.165 38.61 52.275 36.81 53.145C35.04 54.015 33.195 54.45 31.275 54.45ZM53.062 54L43.072 30.375H48.067L55.267 48.06L54.412 48.465L62.107 30.375H66.877L56.392 54H53.062ZM71.8829 54V30.375H76.5179V54H71.8829ZM74.1329 25.155C73.1429 25.155 72.3779 24.9 71.8379 24.39C71.2979 23.88 71.0279 23.16 71.0279 22.23C71.0279 21.36 71.2979 20.655 71.8379 20.115C72.4079 19.575 73.1729 19.305 74.1329 19.305C75.1229 19.305 75.8879 19.56 76.4279 20.07C76.9679 20.58 77.2379 21.3 77.2379 22.23C77.2379 23.1 76.9529 23.805 76.3829 24.345C75.8429 24.885 75.0929 25.155 74.1329 25.155ZM94.6673 54.45C92.2373 54.45 90.0773 53.94 88.1873 52.92C86.3273 51.87 84.8573 50.445 83.7773 48.645C82.7273 46.845 82.2023 44.775 82.2023 42.435C82.2023 40.575 82.5023 38.88 83.1023 37.35C83.7023 35.82 84.5273 34.5 85.5773 33.39C86.6573 32.25 87.9323 31.38 89.4023 30.78C90.9023 30.15 92.5223 29.835 94.2623 29.835C95.7923 29.835 97.2173 30.135 98.5373 30.735C99.8573 31.305 100.997 32.1 101.957 33.12C102.947 34.14 103.697 35.355 104.207 36.765C104.747 38.145 105.002 39.66 104.972 41.31L104.927 43.29H85.6223L84.5873 39.6H100.922L100.247 40.365V39.285C100.157 38.295 99.8273 37.41 99.2573 36.63C98.6873 35.85 97.9673 35.235 97.0973 34.785C96.2273 34.335 95.2823 34.11 94.2623 34.11C92.6423 34.11 91.2773 34.425 90.1673 35.055C89.0573 35.655 88.2173 36.555 87.6473 37.755C87.0773 38.925 86.7923 40.38 86.7923 42.12C86.7923 43.77 87.1373 45.21 87.8273 46.44C88.5173 47.64 89.4923 48.57 90.7523 49.23C92.0123 49.89 93.4673 50.22 95.1173 50.22C96.2873 50.22 97.3673 50.025 98.3573 49.635C99.3773 49.245 100.472 48.54 101.642 47.52L103.982 50.805C103.262 51.525 102.377 52.155 101.327 52.695C100.307 53.235 99.2123 53.67 98.0423 54C96.9023 54.3 95.7773 54.45 94.6673 54.45ZM115.375 54L107.32 30.375L112 30.33L117.76 48.015L116.725 47.925L122.98 34.11H125.77L132.07 47.97L130.855 48.06L136.66 30.375H141.34L133.375 54H130.18L123.61 38.97L124.645 39.105L118.525 54H115.375Z" fill="black"/>
</svg>
